<svg width="1600" height="900" viewBox="0 0 1600 900" fill="none" xmlns="http://www.w3.org/2000/svg">
  <rect width="1600" height="900" fill="#111315"/>
  <rect width="1600" height="900" fill="url(#paint0_linear)"/>
  <path d="M0 680L210 650L440 714L640 666L860 720L1100 670L1340 720L1510 674L1600 690V900H0V680Z" fill="#0D0E10"/>
  <rect x="350" y="170" width="900" height="470" rx="26" fill="#1A1E22"/>
  <rect x="430" y="240" width="740" height="340" rx="18" fill="#242A31"/>
  <rect x="738" y="170" width="124" height="470" fill="#14181C"/>
  <path d="M765 290H835V360H905V430H835V500H765V430H695V360H765V290Z" fill="#9CBFC7" fill-opacity="0.14"/>
  <rect x="506" y="298" width="134" height="210" rx="12" fill="#16191D"/>
  <rect x="960" y="298" width="134" height="210" rx="12" fill="#16191D"/>
  <circle cx="1180" cy="140" r="80" fill="#DBE9F1" fill-opacity="0.08"/>
  <defs>
    <linearGradient id="paint0_linear" x1="800" y1="0" x2="800" y2="900" gradientUnits="userSpaceOnUse">
      <stop stop-color="#394249"/>
      <stop offset="1" stop-color="#121315"/>
    </linearGradient>
  </defs>
</svg>
